<mxfile host="www.draw.io" modified="2019-12-07T10:09:36.957Z" agent="Mozilla/5.0 (Windows NT 10.0; Win64; x64) AppleWebKit/537.36 (KHTML, like Gecko) Chrome/75.0.3770.90 Safari/537.36" etag="APso5hHjGyrguU0Me5Wn" version="12.3.8" type="github" pages="1">
  <diagram name="Page-1" id="4bd5d27a-524c-7e24-5d5f-89a86ee4fca1">
    <mxGraphModel dx="1422" dy="762" grid="1" gridSize="10" guides="1" tooltips="1" connect="1" arrows="1" fold="1" page="1" pageScale="1" pageWidth="1100" pageHeight="850" background="#ffffff" math="0" shadow="0">
      <root>
        <mxCell id="0"/>
        <mxCell id="1" parent="0"/>
        <mxCell id="_7iCEClQUxe89rMdXTxM-23" value="" style="rounded=0;whiteSpace=wrap;html=1;fillColor=#d5e8d4;strokeColor=#82b366;" vertex="1" parent="1">
          <mxGeometry x="40" y="40" width="490" height="300" as="geometry"/>
        </mxCell>
        <mxCell id="_7iCEClQUxe89rMdXTxM-24" value="次卧" style="text;html=1;strokeColor=#C73500;fillColor=#fa6800;align=center;verticalAlign=middle;whiteSpace=wrap;rounded=0;fontColor=#ffffff;" vertex="1" parent="1">
          <mxGeometry x="40" y="40" width="60" height="30" as="geometry"/>
        </mxCell>
        <mxCell id="_7iCEClQUxe89rMdXTxM-45" value="" style="endArrow=none;html=1;" edge="1" parent="1">
          <mxGeometry width="50" height="50" relative="1" as="geometry">
            <mxPoint x="65" y="230" as="sourcePoint"/>
            <mxPoint x="465" y="230" as="targetPoint"/>
          </mxGeometry>
        </mxCell>
        <mxCell id="_7iCEClQUxe89rMdXTxM-46" value="" style="endArrow=none;html=1;" edge="1" parent="1">
          <mxGeometry width="50" height="50" relative="1" as="geometry">
            <mxPoint x="65" y="230" as="sourcePoint"/>
            <mxPoint x="65" y="110" as="targetPoint"/>
          </mxGeometry>
        </mxCell>
        <mxCell id="_7iCEClQUxe89rMdXTxM-47" value="" style="endArrow=none;html=1;" edge="1" parent="1" source="_7iCEClQUxe89rMdXTxM-51">
          <mxGeometry width="50" height="50" relative="1" as="geometry">
            <mxPoint x="65" y="110" as="sourcePoint"/>
            <mxPoint x="145" y="110" as="targetPoint"/>
          </mxGeometry>
        </mxCell>
        <mxCell id="_7iCEClQUxe89rMdXTxM-48" value="" style="endArrow=none;html=1;" edge="1" parent="1">
          <mxGeometry width="50" height="50" relative="1" as="geometry">
            <mxPoint x="145" y="110" as="sourcePoint"/>
            <mxPoint x="145" y="80" as="targetPoint"/>
          </mxGeometry>
        </mxCell>
        <mxCell id="_7iCEClQUxe89rMdXTxM-49" value="" style="endArrow=none;html=1;" edge="1" parent="1">
          <mxGeometry width="50" height="50" relative="1" as="geometry">
            <mxPoint x="145" y="80" as="sourcePoint"/>
            <mxPoint x="455" y="80" as="targetPoint"/>
          </mxGeometry>
        </mxCell>
        <mxCell id="_7iCEClQUxe89rMdXTxM-50" value="" style="endArrow=none;html=1;" edge="1" parent="1">
          <mxGeometry width="50" height="50" relative="1" as="geometry">
            <mxPoint x="465" y="230" as="sourcePoint"/>
            <mxPoint x="465" y="80" as="targetPoint"/>
          </mxGeometry>
        </mxCell>
        <mxCell id="_7iCEClQUxe89rMdXTxM-51" value="26" style="text;html=1;resizable=0;autosize=1;align=center;verticalAlign=middle;points=[];fillColor=none;strokeColor=none;rounded=0;" vertex="1" parent="1">
          <mxGeometry x="95" y="100" width="30" height="20" as="geometry"/>
        </mxCell>
        <mxCell id="_7iCEClQUxe89rMdXTxM-52" value="" style="endArrow=none;html=1;" edge="1" parent="1" target="_7iCEClQUxe89rMdXTxM-51">
          <mxGeometry width="50" height="50" relative="1" as="geometry">
            <mxPoint x="65" y="110" as="sourcePoint"/>
            <mxPoint x="145" y="110" as="targetPoint"/>
          </mxGeometry>
        </mxCell>
        <mxCell id="_7iCEClQUxe89rMdXTxM-53" value="" style="endArrow=none;html=1;curved=1;" edge="1" parent="1">
          <mxGeometry width="50" height="50" relative="1" as="geometry">
            <mxPoint x="65" y="290" as="sourcePoint"/>
            <mxPoint x="65" y="230" as="targetPoint"/>
          </mxGeometry>
        </mxCell>
        <mxCell id="_7iCEClQUxe89rMdXTxM-54" value="" style="endArrow=none;html=1;" edge="1" parent="1">
          <mxGeometry width="50" height="50" relative="1" as="geometry">
            <mxPoint x="465" y="290" as="sourcePoint"/>
            <mxPoint x="465" y="230" as="targetPoint"/>
          </mxGeometry>
        </mxCell>
        <mxCell id="_7iCEClQUxe89rMdXTxM-55" value="" style="endArrow=block;dashed=1;html=1;startArrow=none;startFill=0;endFill=1;" edge="1" parent="1" source="_7iCEClQUxe89rMdXTxM-56">
          <mxGeometry width="50" height="50" relative="1" as="geometry">
            <mxPoint x="65" y="270" as="sourcePoint"/>
            <mxPoint x="465" y="270" as="targetPoint"/>
          </mxGeometry>
        </mxCell>
        <mxCell id="_7iCEClQUxe89rMdXTxM-56" value="200" style="text;html=1;resizable=0;autosize=1;align=center;verticalAlign=middle;points=[];fillColor=none;strokeColor=none;rounded=0;" vertex="1" parent="1">
          <mxGeometry x="245" y="260" width="40" height="20" as="geometry"/>
        </mxCell>
        <mxCell id="_7iCEClQUxe89rMdXTxM-57" value="" style="endArrow=none;dashed=1;html=1;startArrow=block;startFill=1;endFill=0;" edge="1" parent="1" target="_7iCEClQUxe89rMdXTxM-56">
          <mxGeometry width="50" height="50" relative="1" as="geometry">
            <mxPoint x="65" y="270" as="sourcePoint"/>
            <mxPoint x="465" y="270" as="targetPoint"/>
          </mxGeometry>
        </mxCell>
        <mxCell id="_7iCEClQUxe89rMdXTxM-58" value="" style="endArrow=none;html=1;" edge="1" parent="1">
          <mxGeometry width="50" height="50" relative="1" as="geometry">
            <mxPoint x="455" y="80" as="sourcePoint"/>
            <mxPoint x="525" y="80" as="targetPoint"/>
          </mxGeometry>
        </mxCell>
        <mxCell id="_7iCEClQUxe89rMdXTxM-59" value="" style="endArrow=none;html=1;" edge="1" parent="1">
          <mxGeometry width="50" height="50" relative="1" as="geometry">
            <mxPoint x="465" y="230" as="sourcePoint"/>
            <mxPoint x="525" y="230" as="targetPoint"/>
          </mxGeometry>
        </mxCell>
        <mxCell id="_7iCEClQUxe89rMdXTxM-60" value="" style="endArrow=block;dashed=1;html=1;startArrow=none;startFill=0;endFill=1;" edge="1" parent="1" source="_7iCEClQUxe89rMdXTxM-61">
          <mxGeometry width="50" height="50" relative="1" as="geometry">
            <mxPoint x="305" y="160" as="sourcePoint"/>
            <mxPoint x="505" y="230" as="targetPoint"/>
          </mxGeometry>
        </mxCell>
        <mxCell id="_7iCEClQUxe89rMdXTxM-61" value="160" style="text;html=1;resizable=0;autosize=1;align=center;verticalAlign=middle;points=[];fillColor=none;strokeColor=none;rounded=0;" vertex="1" parent="1">
          <mxGeometry x="485" y="150" width="40" height="20" as="geometry"/>
        </mxCell>
        <mxCell id="_7iCEClQUxe89rMdXTxM-62" value="" style="endArrow=none;dashed=1;html=1;startArrow=block;startFill=1;endFill=0;" edge="1" parent="1" target="_7iCEClQUxe89rMdXTxM-61">
          <mxGeometry width="50" height="50" relative="1" as="geometry">
            <mxPoint x="505" y="80" as="sourcePoint"/>
            <mxPoint x="705" y="160" as="targetPoint"/>
          </mxGeometry>
        </mxCell>
        <mxCell id="_7iCEClQUxe89rMdXTxM-63" value="12" style="text;html=1;resizable=0;autosize=1;align=center;verticalAlign=middle;points=[];fillColor=none;strokeColor=none;rounded=0;" vertex="1" parent="1">
          <mxGeometry x="138" y="85" width="30" height="20" as="geometry"/>
        </mxCell>
        <mxCell id="_7iCEClQUxe89rMdXTxM-65" value="" style="rounded=0;whiteSpace=wrap;html=1;fillColor=#d5e8d4;strokeColor=#82b366;" vertex="1" parent="1">
          <mxGeometry x="40" y="375" width="490" height="245" as="geometry"/>
        </mxCell>
        <mxCell id="_7iCEClQUxe89rMdXTxM-66" value="主卧飘窗" style="text;html=1;strokeColor=#C73500;fillColor=#fa6800;align=center;verticalAlign=middle;whiteSpace=wrap;rounded=0;fontColor=#ffffff;" vertex="1" parent="1">
          <mxGeometry x="40" y="375" width="60" height="30" as="geometry"/>
        </mxCell>
        <mxCell id="_7iCEClQUxe89rMdXTxM-67" value="" style="endArrow=none;html=1;" edge="1" parent="1">
          <mxGeometry width="50" height="50" relative="1" as="geometry">
            <mxPoint x="65" y="524.5" as="sourcePoint"/>
            <mxPoint x="465" y="524.5" as="targetPoint"/>
          </mxGeometry>
        </mxCell>
        <mxCell id="_7iCEClQUxe89rMdXTxM-68" value="" style="endArrow=none;html=1;" edge="1" parent="1">
          <mxGeometry width="50" height="50" relative="1" as="geometry">
            <mxPoint x="65" y="565" as="sourcePoint"/>
            <mxPoint x="65" y="445" as="targetPoint"/>
          </mxGeometry>
        </mxCell>
        <mxCell id="_7iCEClQUxe89rMdXTxM-70" value="" style="endArrow=none;html=1;" edge="1" parent="1">
          <mxGeometry width="50" height="50" relative="1" as="geometry">
            <mxPoint x="94.5" y="445" as="sourcePoint"/>
            <mxPoint x="94.5" y="415" as="targetPoint"/>
          </mxGeometry>
        </mxCell>
        <mxCell id="_7iCEClQUxe89rMdXTxM-71" value="" style="endArrow=none;html=1;" edge="1" parent="1">
          <mxGeometry width="50" height="50" relative="1" as="geometry">
            <mxPoint x="95" y="415" as="sourcePoint"/>
            <mxPoint x="455" y="415" as="targetPoint"/>
          </mxGeometry>
        </mxCell>
        <mxCell id="_7iCEClQUxe89rMdXTxM-72" value="" style="endArrow=none;html=1;" edge="1" parent="1">
          <mxGeometry width="50" height="50" relative="1" as="geometry">
            <mxPoint x="465" y="565" as="sourcePoint"/>
            <mxPoint x="465" y="415" as="targetPoint"/>
          </mxGeometry>
        </mxCell>
        <mxCell id="_7iCEClQUxe89rMdXTxM-74" value="" style="endArrow=none;html=1;" edge="1" parent="1">
          <mxGeometry width="50" height="50" relative="1" as="geometry">
            <mxPoint x="65" y="445" as="sourcePoint"/>
            <mxPoint x="95" y="445" as="targetPoint"/>
          </mxGeometry>
        </mxCell>
        <mxCell id="_7iCEClQUxe89rMdXTxM-75" value="" style="endArrow=none;html=1;" edge="1" parent="1">
          <mxGeometry width="50" height="50" relative="1" as="geometry">
            <mxPoint x="65" y="590" as="sourcePoint"/>
            <mxPoint x="65" y="565" as="targetPoint"/>
          </mxGeometry>
        </mxCell>
        <mxCell id="_7iCEClQUxe89rMdXTxM-76" value="" style="endArrow=none;html=1;" edge="1" parent="1">
          <mxGeometry width="50" height="50" relative="1" as="geometry">
            <mxPoint x="465" y="590" as="sourcePoint"/>
            <mxPoint x="465" y="565" as="targetPoint"/>
          </mxGeometry>
        </mxCell>
        <mxCell id="_7iCEClQUxe89rMdXTxM-77" value="" style="endArrow=block;dashed=1;html=1;startArrow=none;startFill=0;endFill=1;" edge="1" parent="1" source="_7iCEClQUxe89rMdXTxM-78">
          <mxGeometry width="50" height="50" relative="1" as="geometry">
            <mxPoint x="65" y="565" as="sourcePoint"/>
            <mxPoint x="465" y="565" as="targetPoint"/>
          </mxGeometry>
        </mxCell>
        <mxCell id="_7iCEClQUxe89rMdXTxM-78" value="274" style="text;html=1;resizable=0;autosize=1;align=center;verticalAlign=middle;points=[];fillColor=none;strokeColor=none;rounded=0;" vertex="1" parent="1">
          <mxGeometry x="245" y="555" width="40" height="20" as="geometry"/>
        </mxCell>
        <mxCell id="_7iCEClQUxe89rMdXTxM-79" value="" style="endArrow=none;dashed=1;html=1;startArrow=block;startFill=1;endFill=0;" edge="1" parent="1" target="_7iCEClQUxe89rMdXTxM-78">
          <mxGeometry width="50" height="50" relative="1" as="geometry">
            <mxPoint x="65" y="565" as="sourcePoint"/>
            <mxPoint x="465" y="565" as="targetPoint"/>
          </mxGeometry>
        </mxCell>
        <mxCell id="_7iCEClQUxe89rMdXTxM-80" value="" style="endArrow=none;html=1;" edge="1" parent="1">
          <mxGeometry width="50" height="50" relative="1" as="geometry">
            <mxPoint x="455" y="415" as="sourcePoint"/>
            <mxPoint x="525" y="415" as="targetPoint"/>
          </mxGeometry>
        </mxCell>
        <mxCell id="_7iCEClQUxe89rMdXTxM-81" value="" style="endArrow=none;html=1;" edge="1" parent="1">
          <mxGeometry width="50" height="50" relative="1" as="geometry">
            <mxPoint x="465" y="565" as="sourcePoint"/>
            <mxPoint x="525" y="565" as="targetPoint"/>
          </mxGeometry>
        </mxCell>
        <mxCell id="_7iCEClQUxe89rMdXTxM-82" value="" style="endArrow=block;dashed=1;html=1;startArrow=none;startFill=0;endFill=1;" edge="1" parent="1" source="_7iCEClQUxe89rMdXTxM-83">
          <mxGeometry width="50" height="50" relative="1" as="geometry">
            <mxPoint x="305" y="495" as="sourcePoint"/>
            <mxPoint x="505" y="565" as="targetPoint"/>
          </mxGeometry>
        </mxCell>
        <mxCell id="_7iCEClQUxe89rMdXTxM-83" value="71" style="text;html=1;resizable=0;autosize=1;align=center;verticalAlign=middle;points=[];fillColor=none;strokeColor=none;rounded=0;" vertex="1" parent="1">
          <mxGeometry x="490" y="485" width="30" height="20" as="geometry"/>
        </mxCell>
        <mxCell id="_7iCEClQUxe89rMdXTxM-84" value="" style="endArrow=none;dashed=1;html=1;startArrow=block;startFill=1;endFill=0;" edge="1" parent="1" target="_7iCEClQUxe89rMdXTxM-83">
          <mxGeometry width="50" height="50" relative="1" as="geometry">
            <mxPoint x="505" y="415" as="sourcePoint"/>
            <mxPoint x="705" y="495" as="targetPoint"/>
          </mxGeometry>
        </mxCell>
        <mxCell id="_7iCEClQUxe89rMdXTxM-85" value="12" style="text;html=1;resizable=0;autosize=1;align=center;verticalAlign=middle;points=[];fillColor=none;strokeColor=none;rounded=0;" vertex="1" parent="1">
          <mxGeometry x="65" y="420" width="30" height="20" as="geometry"/>
        </mxCell>
        <mxCell id="_7iCEClQUxe89rMdXTxM-86" value="" style="rounded=0;whiteSpace=wrap;html=1;fillColor=#d5e8d4;strokeColor=#82b366;" vertex="1" parent="1">
          <mxGeometry x="580" y="40" width="490" height="300" as="geometry"/>
        </mxCell>
        <mxCell id="_7iCEClQUxe89rMdXTxM-87" value="儿童房上铺" style="text;html=1;strokeColor=#C73500;fillColor=#fa6800;align=center;verticalAlign=middle;whiteSpace=wrap;rounded=0;fontColor=#ffffff;" vertex="1" parent="1">
          <mxGeometry x="580" y="40" width="90" height="30" as="geometry"/>
        </mxCell>
        <mxCell id="_7iCEClQUxe89rMdXTxM-88" value="" style="endArrow=none;html=1;" edge="1" parent="1">
          <mxGeometry width="50" height="50" relative="1" as="geometry">
            <mxPoint x="620" y="230" as="sourcePoint"/>
            <mxPoint x="1005" y="230" as="targetPoint"/>
          </mxGeometry>
        </mxCell>
        <mxCell id="_7iCEClQUxe89rMdXTxM-89" value="" style="endArrow=none;html=1;" edge="1" parent="1">
          <mxGeometry width="50" height="50" relative="1" as="geometry">
            <mxPoint x="620" y="230" as="sourcePoint"/>
            <mxPoint x="620" y="80" as="targetPoint"/>
          </mxGeometry>
        </mxCell>
        <mxCell id="_7iCEClQUxe89rMdXTxM-92" value="" style="endArrow=none;html=1;" edge="1" parent="1">
          <mxGeometry width="50" height="50" relative="1" as="geometry">
            <mxPoint x="620" y="80" as="sourcePoint"/>
            <mxPoint x="995" y="80" as="targetPoint"/>
          </mxGeometry>
        </mxCell>
        <mxCell id="_7iCEClQUxe89rMdXTxM-93" value="" style="endArrow=none;html=1;" edge="1" parent="1">
          <mxGeometry width="50" height="50" relative="1" as="geometry">
            <mxPoint x="1005" y="230" as="sourcePoint"/>
            <mxPoint x="1005" y="80" as="targetPoint"/>
          </mxGeometry>
        </mxCell>
        <mxCell id="_7iCEClQUxe89rMdXTxM-96" value="" style="endArrow=none;html=1;curved=1;" edge="1" parent="1">
          <mxGeometry width="50" height="50" relative="1" as="geometry">
            <mxPoint x="620" y="290" as="sourcePoint"/>
            <mxPoint x="620" y="230" as="targetPoint"/>
          </mxGeometry>
        </mxCell>
        <mxCell id="_7iCEClQUxe89rMdXTxM-97" value="" style="endArrow=none;html=1;" edge="1" parent="1">
          <mxGeometry width="50" height="50" relative="1" as="geometry">
            <mxPoint x="1005" y="290" as="sourcePoint"/>
            <mxPoint x="1005" y="230" as="targetPoint"/>
          </mxGeometry>
        </mxCell>
        <mxCell id="_7iCEClQUxe89rMdXTxM-98" value="" style="endArrow=block;dashed=1;html=1;startArrow=none;startFill=0;endFill=1;" edge="1" parent="1" source="_7iCEClQUxe89rMdXTxM-99">
          <mxGeometry width="50" height="50" relative="1" as="geometry">
            <mxPoint x="605" y="270" as="sourcePoint"/>
            <mxPoint x="1005" y="270" as="targetPoint"/>
          </mxGeometry>
        </mxCell>
        <mxCell id="_7iCEClQUxe89rMdXTxM-99" value="220" style="text;html=1;resizable=0;autosize=1;align=center;verticalAlign=middle;points=[];fillColor=none;strokeColor=none;rounded=0;" vertex="1" parent="1">
          <mxGeometry x="785" y="260" width="40" height="20" as="geometry"/>
        </mxCell>
        <mxCell id="_7iCEClQUxe89rMdXTxM-100" value="" style="endArrow=none;dashed=1;html=1;startArrow=block;startFill=1;endFill=0;" edge="1" parent="1" target="_7iCEClQUxe89rMdXTxM-99">
          <mxGeometry width="50" height="50" relative="1" as="geometry">
            <mxPoint x="620" y="270" as="sourcePoint"/>
            <mxPoint x="1005" y="270" as="targetPoint"/>
          </mxGeometry>
        </mxCell>
        <mxCell id="_7iCEClQUxe89rMdXTxM-101" value="" style="endArrow=none;html=1;" edge="1" parent="1">
          <mxGeometry width="50" height="50" relative="1" as="geometry">
            <mxPoint x="995" y="80" as="sourcePoint"/>
            <mxPoint x="1065" y="80" as="targetPoint"/>
          </mxGeometry>
        </mxCell>
        <mxCell id="_7iCEClQUxe89rMdXTxM-102" value="" style="endArrow=none;html=1;" edge="1" parent="1">
          <mxGeometry width="50" height="50" relative="1" as="geometry">
            <mxPoint x="1005" y="230" as="sourcePoint"/>
            <mxPoint x="1065" y="230" as="targetPoint"/>
          </mxGeometry>
        </mxCell>
        <mxCell id="_7iCEClQUxe89rMdXTxM-103" value="" style="endArrow=block;dashed=1;html=1;startArrow=none;startFill=0;endFill=1;" edge="1" parent="1" source="_7iCEClQUxe89rMdXTxM-104">
          <mxGeometry width="50" height="50" relative="1" as="geometry">
            <mxPoint x="845" y="160" as="sourcePoint"/>
            <mxPoint x="1045" y="230" as="targetPoint"/>
          </mxGeometry>
        </mxCell>
        <mxCell id="_7iCEClQUxe89rMdXTxM-104" value="120" style="text;html=1;resizable=0;autosize=1;align=center;verticalAlign=middle;points=[];fillColor=none;strokeColor=none;rounded=0;" vertex="1" parent="1">
          <mxGeometry x="1025" y="150" width="40" height="20" as="geometry"/>
        </mxCell>
        <mxCell id="_7iCEClQUxe89rMdXTxM-105" value="" style="endArrow=none;dashed=1;html=1;startArrow=block;startFill=1;endFill=0;" edge="1" parent="1" target="_7iCEClQUxe89rMdXTxM-104">
          <mxGeometry width="50" height="50" relative="1" as="geometry">
            <mxPoint x="1045" y="80" as="sourcePoint"/>
            <mxPoint x="1245" y="160" as="targetPoint"/>
          </mxGeometry>
        </mxCell>
        <mxCell id="_7iCEClQUxe89rMdXTxM-107" value="" style="rounded=0;whiteSpace=wrap;html=1;fillColor=#d5e8d4;strokeColor=#82b366;" vertex="1" parent="1">
          <mxGeometry x="580" y="375" width="490" height="300" as="geometry"/>
        </mxCell>
        <mxCell id="_7iCEClQUxe89rMdXTxM-108" value="儿童房下铺" style="text;html=1;strokeColor=#C73500;fillColor=#fa6800;align=center;verticalAlign=middle;whiteSpace=wrap;rounded=0;fontColor=#ffffff;" vertex="1" parent="1">
          <mxGeometry x="580" y="375" width="90" height="30" as="geometry"/>
        </mxCell>
        <mxCell id="_7iCEClQUxe89rMdXTxM-109" value="" style="endArrow=none;html=1;" edge="1" parent="1">
          <mxGeometry width="50" height="50" relative="1" as="geometry">
            <mxPoint x="640" y="565" as="sourcePoint"/>
            <mxPoint x="1005" y="565" as="targetPoint"/>
          </mxGeometry>
        </mxCell>
        <mxCell id="_7iCEClQUxe89rMdXTxM-110" value="" style="endArrow=none;html=1;" edge="1" parent="1">
          <mxGeometry width="50" height="50" relative="1" as="geometry">
            <mxPoint x="640" y="620" as="sourcePoint"/>
            <mxPoint x="640" y="414.5" as="targetPoint"/>
          </mxGeometry>
        </mxCell>
        <mxCell id="_7iCEClQUxe89rMdXTxM-113" value="" style="endArrow=none;html=1;" edge="1" parent="1">
          <mxGeometry width="50" height="50" relative="1" as="geometry">
            <mxPoint x="640" y="415" as="sourcePoint"/>
            <mxPoint x="860" y="415" as="targetPoint"/>
          </mxGeometry>
        </mxCell>
        <mxCell id="_7iCEClQUxe89rMdXTxM-114" value="" style="endArrow=none;html=1;" edge="1" parent="1">
          <mxGeometry width="50" height="50" relative="1" as="geometry">
            <mxPoint x="1005" y="565" as="sourcePoint"/>
            <mxPoint x="1005" y="415" as="targetPoint"/>
          </mxGeometry>
        </mxCell>
        <mxCell id="_7iCEClQUxe89rMdXTxM-118" value="" style="endArrow=none;html=1;" edge="1" parent="1">
          <mxGeometry width="50" height="50" relative="1" as="geometry">
            <mxPoint x="1005" y="625" as="sourcePoint"/>
            <mxPoint x="1005" y="565" as="targetPoint"/>
          </mxGeometry>
        </mxCell>
        <mxCell id="_7iCEClQUxe89rMdXTxM-119" value="" style="endArrow=block;dashed=1;html=1;startArrow=none;startFill=0;endFill=1;" edge="1" parent="1" source="_7iCEClQUxe89rMdXTxM-120">
          <mxGeometry width="50" height="50" relative="1" as="geometry">
            <mxPoint x="605" y="605" as="sourcePoint"/>
            <mxPoint x="1005" y="605" as="targetPoint"/>
          </mxGeometry>
        </mxCell>
        <mxCell id="_7iCEClQUxe89rMdXTxM-120" value="190" style="text;html=1;resizable=0;autosize=1;align=center;verticalAlign=middle;points=[];fillColor=none;strokeColor=none;rounded=0;" vertex="1" parent="1">
          <mxGeometry x="785" y="595" width="40" height="20" as="geometry"/>
        </mxCell>
        <mxCell id="_7iCEClQUxe89rMdXTxM-121" value="" style="endArrow=none;dashed=1;html=1;startArrow=block;startFill=1;endFill=0;" edge="1" parent="1" target="_7iCEClQUxe89rMdXTxM-120">
          <mxGeometry width="50" height="50" relative="1" as="geometry">
            <mxPoint x="640" y="605" as="sourcePoint"/>
            <mxPoint x="1005" y="605" as="targetPoint"/>
          </mxGeometry>
        </mxCell>
        <mxCell id="_7iCEClQUxe89rMdXTxM-122" value="" style="endArrow=none;html=1;" edge="1" parent="1">
          <mxGeometry width="50" height="50" relative="1" as="geometry">
            <mxPoint x="1006" y="415" as="sourcePoint"/>
            <mxPoint x="1061" y="415" as="targetPoint"/>
          </mxGeometry>
        </mxCell>
        <mxCell id="_7iCEClQUxe89rMdXTxM-123" value="" style="endArrow=none;html=1;" edge="1" parent="1">
          <mxGeometry width="50" height="50" relative="1" as="geometry">
            <mxPoint x="1005" y="565" as="sourcePoint"/>
            <mxPoint x="1065" y="565" as="targetPoint"/>
          </mxGeometry>
        </mxCell>
        <mxCell id="_7iCEClQUxe89rMdXTxM-124" value="" style="endArrow=block;dashed=1;html=1;startArrow=none;startFill=0;endFill=1;" edge="1" parent="1" source="_7iCEClQUxe89rMdXTxM-125">
          <mxGeometry width="50" height="50" relative="1" as="geometry">
            <mxPoint x="845" y="495" as="sourcePoint"/>
            <mxPoint x="1045" y="565" as="targetPoint"/>
          </mxGeometry>
        </mxCell>
        <mxCell id="_7iCEClQUxe89rMdXTxM-125" value="116" style="text;html=1;resizable=0;autosize=1;align=center;verticalAlign=middle;points=[];fillColor=none;strokeColor=none;rounded=0;" vertex="1" parent="1">
          <mxGeometry x="1030" y="485" width="30" height="20" as="geometry"/>
        </mxCell>
        <mxCell id="_7iCEClQUxe89rMdXTxM-126" value="" style="endArrow=none;dashed=1;html=1;startArrow=block;startFill=1;endFill=0;" edge="1" parent="1" target="_7iCEClQUxe89rMdXTxM-125">
          <mxGeometry width="50" height="50" relative="1" as="geometry">
            <mxPoint x="1045" y="415" as="sourcePoint"/>
            <mxPoint x="1245" y="495" as="targetPoint"/>
          </mxGeometry>
        </mxCell>
        <mxCell id="_7iCEClQUxe89rMdXTxM-129" value="" style="endArrow=none;html=1;" edge="1" parent="1">
          <mxGeometry width="50" height="50" relative="1" as="geometry">
            <mxPoint x="944" y="440" as="sourcePoint"/>
            <mxPoint x="1004" y="440" as="targetPoint"/>
          </mxGeometry>
        </mxCell>
        <mxCell id="_7iCEClQUxe89rMdXTxM-130" value="" style="endArrow=none;html=1;" edge="1" parent="1">
          <mxGeometry width="50" height="50" relative="1" as="geometry">
            <mxPoint x="860" y="440" as="sourcePoint"/>
            <mxPoint x="860" y="415" as="targetPoint"/>
          </mxGeometry>
        </mxCell>
        <mxCell id="_7iCEClQUxe89rMdXTxM-131" value="82" style="text;html=1;resizable=0;autosize=1;align=center;verticalAlign=middle;points=[];fillColor=none;strokeColor=none;rounded=0;" vertex="1" parent="1">
          <mxGeometry x="910" y="430" width="30" height="20" as="geometry"/>
        </mxCell>
        <mxCell id="_7iCEClQUxe89rMdXTxM-132" value="" style="endArrow=none;html=1;" edge="1" parent="1" target="_7iCEClQUxe89rMdXTxM-131">
          <mxGeometry width="50" height="50" relative="1" as="geometry">
            <mxPoint x="860" y="440" as="sourcePoint"/>
            <mxPoint x="940" y="440" as="targetPoint"/>
          </mxGeometry>
        </mxCell>
        <mxCell id="_7iCEClQUxe89rMdXTxM-133" value="12" style="text;html=1;resizable=0;autosize=1;align=center;verticalAlign=middle;points=[];fillColor=none;strokeColor=none;rounded=0;" vertex="1" parent="1">
          <mxGeometry x="830" y="418" width="30" height="20" as="geometry"/>
        </mxCell>
      </root>
    </mxGraphModel>
  </diagram>
</mxfile>
